<svg xmlns="http://www.w3.org/2000/svg" xmlns:xlink="http://www.w3.org/1999/xlink" viewBox="0 0 972 450" class="arbre-svg" font-family="system-ui, 'Segoe UI', sans-serif"><g transform="translate(0,0)"><path d="M 684 48 C 704 48 704 20.5 724 20.5" fill="none" stroke="#e4e1d6" stroke-width="1"/><path d="M 684 48 C 704 48 704 75.5 724 75.5" fill="none" stroke="#e4e1d6" stroke-width="1"/><path d="M 684 158 C 704 158 704 130.5 724 130.5" fill="none" stroke="#e4e1d6" stroke-width="1"/><path d="M 684 158 C 704 158 704 185.5 724 185.5" fill="none" stroke="#e4e1d6" stroke-width="1"/><path d="M 446 103 C 466 103 466 48 486 48" fill="none" stroke="#e4e1d6" stroke-width="1"/><path d="M 446 103 C 466 103 466 158 486 158" fill="none" stroke="#e4e1d6" stroke-width="1"/><path d="M 684 268 C 704 268 704 240.5 724 240.5" fill="none" stroke="#e4e1d6" stroke-width="1"/><path d="M 684 268 C 704 268 704 295.5 724 295.5" fill="none" stroke="#e4e1d6" stroke-width="1"/><path d="M 684 378 C 704 378 704 350.5 724 350.5" fill="none" stroke="#e4e1d6" stroke-width="1"/><path d="M 684 378 C 704 378 704 405.5 724 405.5" fill="none" stroke="#e4e1d6" stroke-width="1"/><path d="M 446 323 C 466 323 466 268 486 268" fill="none" stroke="#e4e1d6" stroke-width="1"/><path d="M 446 323 C 466 323 466 378 486 378" fill="none" stroke="#e4e1d6" stroke-width="1"/><path d="M 208 213 C 228 213 228 103 248 103" fill="none" stroke="#e4e1d6" stroke-width="1"/><path d="M 208 213 C 228 213 228 323 248 323" fill="none" stroke="#e4e1d6" stroke-width="1"/><g class="indi" data-id="I7" data-sosa="8"><title>Raymond MARTIN</title><rect x="724" y="0" width="198" height="41" rx="8" fill="#d2e2f1" stroke="#9db8cf" stroke-width="1"/><circle cx="750" cy="20.5" r="16" fill="#dbe7f2" stroke="#9db8cf" stroke-width="1.8"/><text x="750" y="25.94" text-anchor="middle" font-size="13.76" font-weight="700" fill="#3f6486" pointer-events="none">RM</text><text x="772" y="17" font-size="11" fill="#2a2b28" pointer-events="none">Raymond MARTIN</text><text x="772" y="31" font-size="9" fill="#6a6b64" pointer-events="none">1925-1999</text></g><g class="indi" data-id="I8" data-sosa="9"><title>Edith WHITAKER</title><rect x="724" y="55" width="198" height="41" rx="8" fill="#f2d9e2" stroke="#cfa9b8" stroke-width="1"/><circle cx="750" cy="75.5" r="16" fill="#f2dfe7" stroke="#cfa9b8" stroke-width="1.8"/><text x="750" y="80.94" text-anchor="middle" font-size="13.76" font-weight="700" fill="#9c4d6a" pointer-events="none">EW</text><text x="772" y="72" font-size="11" fill="#2a2b28" pointer-events="none">Edith WHITAKER</text><text x="772" y="86" font-size="9" fill="#6a6b64" pointer-events="none">1927-2009</text></g><g class="indi" data-id="I5" data-sosa="4"><title>Michel MARTIN</title><rect x="486" y="27.5" width="198" height="41" rx="8" fill="#d2e2f1" stroke="#9db8cf" stroke-width="1"/><circle cx="512" cy="48" r="16" fill="#dbe7f2" stroke="#9db8cf" stroke-width="1.8"/><text x="512" y="53.44" text-anchor="middle" font-size="13.76" font-weight="700" fill="#3f6486" pointer-events="none">MM</text><text x="534" y="44.5" font-size="11" fill="#2a2b28" pointer-events="none">Michel MARTIN</text><text x="534" y="58.5" font-size="9" fill="#6a6b64" pointer-events="none">1952-</text></g><g class="indi" data-id="I68" data-sosa="10"><title>Roland LEROY</title><rect x="724" y="110" width="198" height="41" rx="8" fill="#d2e2f1" stroke="#9db8cf" stroke-width="1"/><circle cx="750" cy="130.5" r="16" fill="#dbe7f2" stroke="#9db8cf" stroke-width="1.8"/><text x="750" y="135.94" text-anchor="middle" font-size="13.76" font-weight="700" fill="#3f6486" pointer-events="none">RL</text><text x="772" y="127" font-size="11" fill="#2a2b28" pointer-events="none">Roland LEROY</text><text x="772" y="141" font-size="9" fill="#6a6b64" pointer-events="none">1928-2012</text></g><g class="indi" data-id="I69" data-sosa="11"><title>Paulette MEUNIER</title><rect x="724" y="165" width="198" height="41" rx="8" fill="#f2d9e2" stroke="#cfa9b8" stroke-width="1"/><circle cx="750" cy="185.5" r="16" fill="#f2dfe7" stroke="#cfa9b8" stroke-width="1.8"/><text x="750" y="190.94" text-anchor="middle" font-size="13.76" font-weight="700" fill="#9c4d6a" pointer-events="none">PM</text><text x="772" y="182" font-size="11" fill="#2a2b28" pointer-events="none">Paulette MEUNIER</text><text x="772" y="196" font-size="9" fill="#6a6b64" pointer-events="none">1931-2019</text></g><g class="indi" data-id="I6" data-sosa="5"><title>Martine LEROY</title><rect x="486" y="137.5" width="198" height="41" rx="8" fill="#f2d9e2" stroke="#cfa9b8" stroke-width="1"/><circle cx="512" cy="158" r="16" fill="#f2dfe7" stroke="#cfa9b8" stroke-width="1.8"/><text x="512" y="163.44" text-anchor="middle" font-size="13.76" font-weight="700" fill="#9c4d6a" pointer-events="none">ML</text><text x="534" y="154.5" font-size="11" fill="#2a2b28" pointer-events="none">Martine LEROY</text><text x="534" y="168.5" font-size="9" fill="#6a6b64" pointer-events="none">1954-</text></g><g class="indi" data-id="I3" data-sosa="2"><title>Nicolas MARTIN</title><rect x="248" y="82.5" width="198" height="41" rx="8" fill="#d2e2f1" stroke="#9db8cf" stroke-width="1"/><circle cx="274" cy="103" r="16" fill="#dbe7f2" stroke="#9db8cf" stroke-width="1.8"/><text x="274" y="108.44" text-anchor="middle" font-size="13.76" font-weight="700" fill="#3f6486" pointer-events="none">NM</text><text x="296" y="99.5" font-size="11" fill="#2a2b28" pointer-events="none">Nicolas MARTIN</text><text x="296" y="113.5" font-size="9" fill="#6a6b64" pointer-events="none">1979-</text></g><g class="indi" data-id="I64" data-sosa="12"><title>Fernand FONTAINE</title><rect x="724" y="220" width="198" height="41" rx="8" fill="#d2e2f1" stroke="#9db8cf" stroke-width="1"/><circle cx="750" cy="240.5" r="16" fill="#dbe7f2" stroke="#9db8cf" stroke-width="1.8"/><text x="750" y="245.94" text-anchor="middle" font-size="13.76" font-weight="700" fill="#3f6486" pointer-events="none">FF</text><text x="772" y="237" font-size="11" fill="#2a2b28" pointer-events="none">Fernand FONTAINE</text><text x="772" y="251" font-size="9" fill="#6a6b64" pointer-events="none">1920-2002</text></g><g class="indi" data-id="I65" data-sosa="13"><title>Odette LEMAIRE</title><rect x="724" y="275" width="198" height="41" rx="8" fill="#f2d9e2" stroke="#cfa9b8" stroke-width="1"/><circle cx="750" cy="295.5" r="16" fill="#f2dfe7" stroke="#cfa9b8" stroke-width="1.8"/><text x="750" y="300.94" text-anchor="middle" font-size="13.76" font-weight="700" fill="#9c4d6a" pointer-events="none">OL</text><text x="772" y="292" font-size="11" fill="#2a2b28" pointer-events="none">Odette LEMAIRE</text><text x="772" y="306" font-size="9" fill="#6a6b64" pointer-events="none">1923-2001</text></g><g class="indi" data-id="I61" data-sosa="6"><title>Gérard FONTAINE</title><rect x="486" y="247.5" width="198" height="41" rx="8" fill="#d2e2f1" stroke="#9db8cf" stroke-width="1"/><circle cx="512" cy="268" r="16" fill="#dbe7f2" stroke="#9db8cf" stroke-width="1.8"/><text x="512" y="273.44" text-anchor="middle" font-size="13.76" font-weight="700" fill="#3f6486" pointer-events="none">GF</text><text x="534" y="264.5" font-size="11" fill="#2a2b28" pointer-events="none">Gérard FONTAINE</text><text x="534" y="278.5" font-size="9" fill="#6a6b64" pointer-events="none">1948-</text></g><g class="indi" data-id="I66" data-sosa="14"><title>Marcel GAUTHIER</title><rect x="724" y="330" width="198" height="41" rx="8" fill="#d2e2f1" stroke="#9db8cf" stroke-width="1"/><circle cx="750" cy="350.5" r="16" fill="#dbe7f2" stroke="#9db8cf" stroke-width="1.8"/><text x="750" y="355.94" text-anchor="middle" font-size="13.76" font-weight="700" fill="#3f6486" pointer-events="none">MG</text><text x="772" y="347" font-size="11" fill="#2a2b28" pointer-events="none">Marcel GAUTHIER</text><text x="772" y="361" font-size="9" fill="#6a6b64" pointer-events="none">1923-1989</text></g><g class="indi" data-id="I67" data-sosa="15"><title>Simone DUFOUR</title><rect x="724" y="385" width="198" height="41" rx="8" fill="#f2d9e2" stroke="#cfa9b8" stroke-width="1"/><circle cx="750" cy="405.5" r="16" fill="#f2dfe7" stroke="#cfa9b8" stroke-width="1.8"/><text x="750" y="410.94" text-anchor="middle" font-size="13.76" font-weight="700" fill="#9c4d6a" pointer-events="none">SD</text><text x="772" y="402" font-size="11" fill="#2a2b28" pointer-events="none">Simone DUFOUR</text><text x="772" y="416" font-size="9" fill="#6a6b64" pointer-events="none">1926-1990</text></g><g class="indi" data-id="I62" data-sosa="7"><title>Monique GAUTHIER</title><rect x="486" y="357.5" width="198" height="41" rx="8" fill="#f2d9e2" stroke="#cfa9b8" stroke-width="1"/><circle cx="512" cy="378" r="16" fill="#f2dfe7" stroke="#cfa9b8" stroke-width="1.8"/><text x="512" y="383.44" text-anchor="middle" font-size="13.76" font-weight="700" fill="#9c4d6a" pointer-events="none">MG</text><text x="534" y="374.5" font-size="11" fill="#2a2b28" pointer-events="none">Monique GAUTHIER</text><text x="534" y="388.5" font-size="9" fill="#6a6b64" pointer-events="none">1950-</text></g><g class="indi" data-id="I4" data-sosa="3"><title>Claire FONTAINE</title><rect x="248" y="302.5" width="198" height="41" rx="8" fill="#f2d9e2" stroke="#cfa9b8" stroke-width="1"/><circle cx="274" cy="323" r="16" fill="#f2dfe7" stroke="#cfa9b8" stroke-width="1.8"/><text x="274" y="328.44" text-anchor="middle" font-size="13.76" font-weight="700" fill="#9c4d6a" pointer-events="none">CF</text><text x="296" y="319.5" font-size="11" fill="#2a2b28" pointer-events="none">Claire FONTAINE</text><text x="296" y="333.5" font-size="9" fill="#6a6b64" pointer-events="none">1981-</text></g><g class="indi" data-id="I1" data-sosa="1" data-root="1"><title>Lucie MARTIN</title><rect x="10" y="192.5" width="198" height="41" rx="8" fill="#f2d9e2" stroke="#cfa9b8" stroke-width="3"/><circle cx="36" cy="213" r="16" fill="#f2dfe7" stroke="#cfa9b8" stroke-width="1.8"/><text x="36" y="218.44" text-anchor="middle" font-size="13.76" font-weight="700" fill="#9c4d6a" pointer-events="none">LM</text><text x="58" y="209.5" font-size="11" fill="#2a2b28" pointer-events="none">Lucie MARTIN</text><text x="58" y="223.5" font-size="9" fill="#6a6b64" pointer-events="none">2006-</text></g></g></svg>